<?xml version="1.0" standalone="no"?>
<!DOCTYPE svg PUBLIC "-//W3C//DTD SVG 20010904//EN"
 "http://www.w3.org/TR/2001/REC-SVG-20010904/DTD/svg10.dtd">
<svg version="1.0" xmlns="http://www.w3.org/2000/svg"
 width="768.000000pt" height="768.000000pt" viewBox="0 0 768.000000 768.000000"
 preserveAspectRatio="xMidYMid meet">
<metadata>
Created by potrace 1.14, written by Peter Selinger 2001-2017
</metadata>
<g transform="translate(0.000000,768.000000) scale(0.100000,-0.100000)"
fill="#000000" stroke="none">
<path d="M3637 7663 c-3 -2 -40 -6 -83 -8 -44 -2 -95 -6 -114 -9 -19 -2 -64
-8 -100 -11 -66 -7 -75 -9 -120 -19 -14 -3 -41 -8 -60 -11 -46 -6 -70 -11
-113 -23 -20 -6 -38 -8 -41 -5 -3 3 -12 1 -19 -5 -8 -7 -17 -9 -20 -5 -4 3
-13 0 -22 -7 -8 -7 -15 -10 -15 -7 0 4 -19 0 -90 -18 -8 -2 -16 -4 -17 -5 -3
-3 -3 -3 -53 -14 -19 -5 -39 -11 -45 -14 -5 -4 -16 -7 -23 -8 -8 -2 -21 -6
-30 -10 -9 -4 -24 -8 -32 -9 -8 -2 -46 -15 -85 -30 -38 -15 -74 -28 -80 -30
-47 -15 -55 -18 -55 -27 0 -5 -4 -7 -10 -3 -5 3 -17 1 -27 -4 -10 -6 -36 -18
-58 -27 -73 -31 -290 -136 -295 -142 -3 -4 -12 -8 -20 -10 -8 -2 -22 -10 -31
-18 -8 -8 -20 -14 -26 -14 -6 0 -16 -7 -23 -15 -7 -9 -15 -13 -18 -11 -2 3
-24 -8 -48 -24 -23 -17 -47 -30 -53 -30 -6 0 -11 -4 -11 -10 0 -5 -7 -10 -15
-10 -8 0 -15 -4 -15 -9 0 -5 -13 -14 -30 -21 -16 -7 -30 -16 -30 -21 0 -5 -7
-9 -15 -9 -9 0 -18 -7 -21 -15 -4 -8 -10 -13 -14 -10 -5 3 -15 -3 -22 -12 -7
-10 -24 -24 -38 -31 -26 -13 -174 -130 -276 -217 -91 -78 -313 -298 -309 -306
3 -4 -5 -9 -17 -12 -12 -4 -19 -9 -16 -12 3 -4 -14 -26 -38 -51 -25 -24 -42
-44 -39 -44 3 0 -11 -18 -32 -41 -21 -22 -37 -42 -36 -44 1 -2 -14 -21 -33
-41 -19 -21 -34 -43 -34 -50 0 -6 -7 -14 -15 -18 -8 -3 -15 -12 -15 -21 0 -8
-4 -15 -9 -15 -6 0 -20 -18 -32 -40 -13 -22 -26 -40 -31 -40 -4 0 -8 -4 -8 -9
0 -9 -56 -99 -85 -136 -8 -10 -15 -24 -15 -31 0 -6 -7 -17 -15 -24 -8 -7 -13
-16 -10 -20 3 -5 1 -10 -3 -12 -5 -1 -33 -48 -64 -103 -59 -108 -72 -136 -70
-147 1 -5 -2 -8 -7 -8 -5 0 -12 -10 -16 -22 -4 -13 -8 -25 -10 -28 -1 -3 -6
-14 -10 -25 -5 -11 -12 -23 -17 -26 -4 -3 -9 -17 -10 -32 -1 -15 -6 -27 -11
-27 -4 0 -5 -4 -2 -10 3 -5 2 -10 -3 -10 -6 0 -13 -12 -18 -27 -4 -16 -8 -30
-9 -33 -1 -3 -9 -23 -19 -45 -10 -22 -19 -48 -21 -57 -2 -9 -8 -25 -14 -36 -6
-11 -7 -22 -4 -26 3 -3 1 -6 -5 -6 -7 0 -12 -6 -12 -12 0 -11 -30 -117 -48
-168 -3 -8 -6 -19 -7 -25 -2 -5 -8 -30 -16 -55 -7 -25 -14 -54 -16 -65 -2 -11
-9 -38 -15 -60 -6 -22 -13 -49 -15 -60 -7 -45 -10 -61 -16 -90 -13 -54 -17
-79 -23 -135 -3 -30 -8 -62 -11 -70 -3 -8 -7 -33 -8 -55 -2 -22 -6 -65 -9 -95
-20 -196 -24 -401 -11 -600 7 -109 12 -165 15 -165 1 0 3 -20 4 -45 1 -25 6
-56 9 -70 4 -14 9 -45 12 -70 7 -69 14 -111 20 -120 3 -5 7 -32 10 -60 3 -29
10 -60 14 -69 5 -9 12 -32 14 -51 3 -19 6 -35 7 -35 2 0 8 -25 15 -65 4 -19
10 -39 15 -44 5 -5 6 -14 4 -21 -3 -7 -1 -16 5 -20 6 -3 11 -16 11 -29 0 -12
3 -26 8 -30 4 -4 7 -11 7 -14 0 -9 25 -91 35 -117 8 -20 22 -56 25 -65 19 -54
91 -228 102 -246 7 -11 10 -24 6 -27 -3 -4 -1 -7 5 -7 7 0 12 -5 12 -10 0 -16
43 -104 54 -112 6 -4 8 -8 4 -8 -3 0 4 -19 16 -42 66 -122 90 -163 98 -166 4
-2 8 -9 8 -15 0 -12 81 -140 92 -145 5 -2 8 -8 8 -14 0 -11 86 -135 112 -161
10 -10 18 -22 18 -27 0 -6 8 -18 18 -28 9 -10 31 -36 47 -57 31 -40 50 -63
120 -143 42 -49 171 -186 193 -206 6 -6 49 -46 95 -88 45 -43 85 -78 88 -78 3
0 22 -15 41 -32 19 -18 50 -44 68 -58 18 -14 39 -31 47 -38 7 -7 13 -11 13 -8
0 3 8 -2 18 -11 10 -10 31 -27 46 -38 15 -11 48 -35 72 -53 24 -18 44 -29 44
-25 0 4 4 3 8 -3 10 -16 127 -94 141 -94 6 0 11 -5 11 -11 0 -5 5 -7 10 -4 5
3 10 2 10 -3 0 -5 18 -17 40 -27 22 -10 40 -21 40 -24 0 -7 61 -34 73 -32 4 0
7 -3 7 -9 0 -5 5 -10 11 -10 6 0 23 -9 37 -19 15 -10 30 -19 35 -20 4 0 40
-16 80 -35 89 -43 130 -60 139 -58 5 1 8 -2 8 -8 0 -5 6 -10 13 -10 8 0 28 -7
46 -16 17 -9 37 -17 44 -18 7 -1 18 -5 25 -9 6 -5 12 -5 12 0 0 4 4 3 8 -2 4
-6 34 -19 67 -30 33 -11 65 -22 70 -27 6 -4 24 -9 40 -12 16 -3 41 -10 55 -15
27 -11 109 -34 125 -36 6 -1 30 -7 55 -14 25 -8 50 -14 55 -16 19 -4 80 -16
100 -20 11 -2 21 -4 23 -5 4 -4 14 -6 72 -14 30 -5 64 -10 75 -13 23 -5 48 -9
125 -18 30 -3 69 -8 85 -11 145 -23 652 -23 800 0 17 2 59 7 95 11 36 4 76 9
90 11 62 10 147 25 165 29 11 3 43 10 70 16 28 6 57 12 65 14 8 1 22 5 30 8
17 6 69 19 85 21 6 1 30 8 55 15 25 7 50 14 55 15 6 1 15 4 20 7 6 4 24 10 40
14 34 9 34 10 55 18 8 3 47 16 85 29 39 12 72 26 73 31 2 4 10 7 18 7 14 0 45
13 141 56 17 8 35 14 41 14 5 0 15 7 22 15 7 9 15 13 18 11 4 -5 242 113 252
125 5 5 36 22 97 53 13 6 23 14 23 19 0 4 4 7 9 7 9 0 99 56 136 85 10 8 25
15 32 15 7 0 13 7 13 15 0 8 3 14 8 13 6 -2 60 29 72 42 3 3 26 21 53 40 26
19 57 43 69 52 11 10 26 18 31 18 6 0 7 3 3 7 -3 4 2 12 12 17 53 30 405 363
397 377 -3 3 7 11 22 18 14 6 23 14 20 17 -3 3 7 18 21 33 15 15 41 45 57 65
17 20 38 46 48 57 10 11 27 34 37 52 11 18 20 28 20 23 0 -5 10 6 23 25 13 19
53 78 90 132 37 54 67 102 67 107 0 6 4 10 8 10 5 0 17 18 28 40 10 22 23 40
27 40 5 0 5 4 2 10 -3 5 -3 10 2 10 4 0 26 35 48 78 22 42 42 79 46 82 8 8 39
77 39 89 0 6 4 11 9 11 5 0 13 10 17 22 4 13 22 55 40 95 19 40 34 75 34 77 0
2 10 26 22 53 11 26 22 54 24 61 1 8 6 21 10 30 4 9 8 19 9 22 1 3 5 12 8 20
12 27 78 233 80 251 2 10 6 22 10 25 4 4 7 20 7 36 0 15 5 28 12 28 6 0 9 3 6
6 -3 3 0 28 8 57 7 28 11 53 9 55 -2 3 0 12 5 22 9 17 21 77 44 225 4 28 10
61 13 75 2 14 7 45 9 70 2 25 6 63 8 85 25 256 25 529 0 745 -4 30 -8 71 -9
90 -2 19 -6 46 -9 60 -3 14 -8 43 -11 65 -10 74 -34 203 -50 270 -3 11 -7 31
-11 45 -6 31 -7 34 -24 90 -7 25 -14 50 -15 55 -1 6 -4 17 -7 25 -3 8 -20 62
-38 120 -18 58 -38 111 -44 119 -6 8 -9 16 -7 18 3 4 -11 44 -35 100 -8 17
-14 33 -14 36 0 6 -55 126 -106 232 -19 39 -52 102 -74 140 -22 39 -43 78 -46
88 -4 9 -10 17 -15 17 -5 0 -8 4 -6 8 2 9 -84 145 -95 150 -5 2 -8 8 -8 13 0
14 -102 159 -111 159 -5 0 -9 6 -9 13 0 6 -14 26 -30 44 -17 18 -30 36 -30 42
0 5 -3 11 -7 13 -5 2 -28 28 -53 58 -24 30 -55 65 -67 77 -13 12 -23 25 -23
28 0 17 -394 394 -421 404 -6 2 -26 19 -45 37 -19 19 -34 31 -34 27 0 -4 -7 2
-15 13 -8 10 -15 16 -15 12 0 -4 -11 3 -24 15 -30 28 -38 33 -111 82 -33 22
-62 42 -65 46 -3 3 -23 16 -45 29 -22 13 -42 27 -45 30 -3 3 -16 11 -30 18
-27 13 -62 34 -70 42 -3 3 -23 15 -45 27 -125 66 -156 83 -172 91 -10 5 -46
23 -79 40 -34 17 -64 28 -68 25 -3 -4 -6 -1 -6 5 0 7 -7 12 -16 12 -9 0 -28 6
-42 14 -56 29 -256 106 -275 106 -8 0 -17 3 -21 7 -3 4 -12 8 -19 9 -7 1 -32
9 -57 17 -46 16 -125 38 -147 41 -7 1 -16 5 -19 9 -4 4 -19 7 -34 7 -15 0 -30
3 -34 7 -3 4 -14 8 -24 9 -9 1 -39 7 -67 14 -60 14 -67 16 -125 25 -25 4 -54
9 -65 12 -11 2 -36 6 -55 8 -19 2 -52 6 -73 9 -57 9 -136 18 -192 22 -79 6
-503 12 -508 7z"/>
</g>
</svg>
